<?xml version="1.0" encoding="UTF-8" ?>
<!DOCTYPE svg PUBLIC "-//W3C//DTD SVG 1.1//EN" "http://www.w3.org/Graphics/SVG/1.1/DTD/svg11.dtd">
<svg width="262px" height="127px" viewBox="0 0 262 127" version="1.1" xmlns="http://www.w3.org/2000/svg">
<g id="#ffffffff">
<path fill="#ffffff" opacity="1.00" d=" M 209.09 38.04 C 216.40 35.51 225.10 36.33 231.43 40.92 C 231.52 43.93 231.63 46.95 231.15 49.92 C 227.25 49.31 224.06 46.43 220.03 46.34 C 216.60 45.90 212.38 46.05 210.57 49.54 C 210.18 51.79 209.78 54.63 211.84 56.21 C 217.79 61.94 227.59 62.46 232.26 69.80 C 235.38 73.71 234.92 78.97 234.35 83.62 C 232.62 90.47 226.34 95.46 219.50 96.60 C 212.05 97.98 203.48 97.13 197.49 92.09 C 197.24 88.98 197.14 85.83 197.71 82.75 C 204.06 85.16 210.72 89.34 217.78 86.91 C 222.60 85.82 224.58 78.48 220.41 75.54 C 214.17 70.69 205.15 69.51 200.68 62.41 C 197.79 58.65 198.08 53.70 198.59 49.25 C 199.80 44.00 204.00 39.70 209.09 38.04 Z" />
<path fill="#ffffff" opacity="1.00" d=" M 32.04 45.05 C 41.89 35.48 57.76 34.64 69.89 39.96 C 74.58 41.86 74.19 48.13 72.30 51.93 C 65.12 47.89 56.48 44.76 48.28 47.46 C 41.47 49.46 37.05 56.16 36.32 63.00 C 35.60 69.57 36.47 76.87 41.00 82.01 C 46.09 87.70 54.97 88.68 61.69 85.48 C 61.62 80.93 61.65 76.37 61.67 71.82 C 57.63 71.81 53.59 71.85 49.55 71.75 C 48.77 68.77 48.35 65.59 49.92 62.77 C 56.28 62.92 62.65 62.72 69.02 62.85 C 70.98 62.87 73.31 63.75 73.33 66.06 C 73.57 73.38 73.34 80.72 73.44 88.05 C 73.46 90.19 73.34 93.24 70.87 93.96 C 61.67 97.46 51.25 98.35 41.79 95.38 C 34.26 93.00 28.07 86.85 25.80 79.27 C 22.11 67.87 23.74 54.08 32.04 45.05 Z" />
<path fill="#ffffff" opacity="1.00" d=" M 85.78 40.03 C 85.61 38.32 87.49 37.31 88.99 37.58 C 91.90 37.50 94.91 37.29 97.65 38.45 C 97.70 57.48 97.81 76.51 97.60 95.53 C 93.89 96.48 89.00 97.61 85.83 94.91 C 85.66 76.62 85.77 58.32 85.78 40.03 Z" />
<path fill="#ffffff" opacity="1.00" d=" M 110.71 42.90 C 110.45 40.87 111.51 38.93 113.16 37.80 C 118.41 37.30 123.72 37.63 129.00 37.62 C 135.79 37.83 143.50 39.39 147.64 45.34 C 153.70 54.62 150.19 69.36 139.58 73.70 C 134.25 76.14 128.26 75.83 122.54 75.86 C 122.62 82.35 122.48 88.83 122.61 95.32 C 118.99 96.69 113.98 97.51 110.79 94.96 C 110.61 77.61 110.78 60.25 110.71 42.90 M 122.57 47.03 C 122.56 53.62 122.56 60.21 122.57 66.80 C 126.39 66.59 130.75 67.53 134.03 65.02 C 139.43 61.25 139.98 51.24 133.71 48.02 C 130.17 46.69 126.27 47.26 122.57 47.03 Z" />
<path fill="#ffffff" opacity="1.00" d=" M 159.64 41.96 C 159.22 39.52 161.53 37.22 163.96 37.58 C 173.12 37.59 182.28 37.46 191.43 37.67 C 192.02 40.87 191.99 44.15 191.47 47.36 C 184.83 47.58 178.18 47.37 171.53 47.50 C 171.61 52.79 171.52 58.07 171.60 63.36 C 177.87 63.36 184.15 63.26 190.42 63.43 C 191.41 66.43 191.26 69.52 190.34 72.51 C 184.08 72.67 177.82 72.58 171.56 72.58 C 171.54 80.22 171.63 87.86 171.50 95.50 C 167.66 96.74 163.31 97.08 159.58 95.27 C 159.71 77.50 159.59 59.73 159.64 41.96 Z" />
</g>
</svg>
