<svg width="577" height="670" xmlns="http://www.w3.org/2000/svg" xmlns:xlink="http://www.w3.org/1999/xlink" xml:space="preserve" overflow="hidden"><defs><clipPath id="clip0"><rect x="1911" y="902" width="577" height="670"/></clipPath></defs><g clip-path="url(#clip0)" transform="translate(-1911 -902)"><path d="M1911 1402.25 2199.5 1569 2488 1402.25 2488 1068.75 2199.5 902 1911 1068.75Z" fill="#E93511" fill-rule="evenodd"/><path d="M2169.42 942 1959.58 1062.97C1959.93 1066.75 1959.93 1070.54 1959.58 1074.32L2169.07 1195.29C2186.76 1182.23 2210.9 1182.23 2228.58 1195.29L2438.07 1074.32C2437.73 1070.54 2437.73 1066.75 2438.07 1062.97L2228.93 942C2211.24 955.062 2187.1 955.062 2169.42 942ZM2458.37 1107.65 2248.53 1230C2250.87 1251.77 2238.93 1272.57 2218.95 1281.55L2219.3 1522.13C2222.69 1523.62 2225.92 1525.46 2228.93 1527.63L2438.42 1406.65C2436.08 1384.88 2448.02 1364.09 2468 1355.1L2468 1113.15C2464.65 1111.58 2461.43 1109.74 2458.37 1107.65ZM1939.63 1109.03C1936.62 1111.19 1933.39 1113.03 1930 1114.53L1930 1356.47C1950.25 1365.16 1962.32 1386.18 1959.58 1408.03L2169.07 1529C2172.08 1526.84 2175.31 1525 2178.7 1523.5L2178.7 1281.55C2158.45 1272.87 2146.39 1251.85 2149.12 1230Z" fill="#F05133" fill-rule="evenodd"/><path d="M2199.5 938.413 2457.43 1087.63 2457.43 1385.72 2199.5 1534.93 1941.57 1385.72 1941.57 1087.28ZM2199.5 903 1911 1069.75 1911 1403.25 2199.5 1570 2488 1403.25 2488 1069.75Z" fill="#E93511" fill-rule="evenodd"/><path d="M2201.39 1292.54 2197.27 1292.54C2182.96 1292.58 2169.24 1286.9 2159.12 1276.77 2149.01 1266.64 2143.34 1252.89 2143.38 1238.56L2143.38 1234.44C2143.34 1220.11 2149.01 1206.36 2159.12 1196.23 2169.24 1186.1 2182.96 1180.42 2197.27 1180.46L2201.39 1180.46C2215.69 1180.42 2229.42 1186.1 2239.53 1196.23 2249.65 1206.36 2255.32 1220.11 2255.28 1234.44L2255.28 1238.56C2255.32 1252.89 2249.65 1266.64 2239.53 1276.77 2229.42 1286.9 2215.69 1292.58 2201.39 1292.54ZM2201.39 1514.3 2197.27 1514.3C2177.77 1514.24 2159.77 1524.77 2150.24 1541.81L2199.33 1570 2248.41 1541.81C2238.88 1524.77 2220.88 1514.24 2201.39 1514.3ZM2488 1347.55 2485.94 1347.55C2471.64 1347.51 2457.91 1353.19 2447.8 1363.32 2437.68 1373.45 2432.01 1387.2 2432.05 1401.53L2432.05 1405.66C2432 1414.82 2434.37 1423.83 2438.92 1431.79L2488 1403.25ZM2438.92 1041.56C2434.41 1049.53 2432.04 1058.53 2432.05 1067.69L2432.05 1071.81C2432.01 1086.14 2437.68 1099.89 2447.8 1110.02 2457.91 1120.15 2471.64 1125.83 2485.94 1125.79L2488 1125.79 2488 1069.75ZM2199.33 903 2150.24 931.193C2159.73 948.32 2177.72 958.973 2197.27 959.042L2201.39 959.042C2220.88 959.1 2238.88 948.573 2248.41 931.537ZM1960.08 1041.21 1911 1069.75 1911 1125.79 1913.06 1125.79C1927.36 1125.83 1941.09 1120.15 1951.21 1110.02 1961.32 1099.89 1966.99 1086.14 1966.95 1071.81L1966.95 1067.69C1966.83 1058.44 1964.48 1049.35 1960.08 1041.21ZM1913.06 1347.55 1911 1347.55 1911 1403.25 1960.08 1431.79C1964.59 1423.82 1966.96 1414.82 1966.95 1405.66L1966.95 1401.53C1966.99 1387.2 1961.32 1373.45 1951.21 1363.32 1941.09 1353.19 1927.36 1347.51 1913.06 1347.55Z" fill="#E93511" fill-rule="evenodd"/><path d="M2199 1572 2199 1237.89 1911 1071 1911 1405.12Z" fill="#083B54" fill-rule="evenodd" fill-opacity="0.14902"/><path d="M2488 1401.77 2488 1068 2200 1234.89 2200 1569Z" fill="#083B54" fill-rule="evenodd" fill-opacity="0.0509804"/><path d="M2371.14 1174.12C2387.33 1168.52 2406.6 1170.34 2420.62 1180.49 2420.82 1187.15 2421.06 1193.84 2420 1200.41 2411.36 1199.06 2404.29 1192.69 2395.37 1192.49 2387.77 1191.51 2378.42 1191.85 2374.41 1199.57 2373.55 1204.55 2372.66 1210.83 2377.23 1214.32 2390.41 1227 2412.11 1228.15 2422.46 1244.39 2429.37 1253.04 2428.35 1264.68 2427.09 1274.97 2423.26 1290.13 2409.35 1301.17 2394.19 1303.69 2377.69 1306.74 2358.71 1304.86 2345.44 1293.71 2344.89 1286.83 2344.67 1279.86 2345.93 1273.05 2359.99 1278.38 2374.75 1287.63 2390.38 1282.25 2401.06 1279.84 2405.45 1263.6 2396.21 1257.09 2382.39 1246.36 2362.41 1243.75 2352.51 1228.04 2346.11 1219.72 2346.75 1208.77 2347.88 1198.93 2350.56 1187.31 2359.86 1177.8 2371.14 1174.12Z" fill="#FFFFFF" fill-rule="evenodd"/><path d="M1980.95 1189.51C2002.75 1168.3 2037.88 1166.44 2064.74 1178.23 2075.12 1182.44 2074.26 1196.33 2070.07 1204.75 2054.18 1195.8 2035.05 1188.87 2016.9 1194.85 2001.82 1199.28 1992.04 1214.13 1990.42 1229.28 1988.83 1243.84 1990.75 1260.01 2000.78 1271.4 2012.05 1284.01 2031.71 1286.18 2046.58 1279.09 2046.43 1269.01 2046.5 1258.91 2046.54 1248.82 2037.6 1248.8 2028.65 1248.89 2019.71 1248.67 2017.98 1242.07 2017.05 1235.02 2020.53 1228.77 2034.61 1229.1 2048.71 1228.66 2062.81 1228.95 2067.15 1228.99 2072.31 1230.94 2072.35 1236.06 2072.88 1252.28 2072.38 1268.54 2072.6 1284.79 2072.64 1289.53 2072.38 1296.29 2066.91 1297.88 2046.54 1305.64 2023.47 1307.61 2002.53 1301.03 1985.86 1295.75 1972.16 1282.13 1967.13 1265.33 1958.96 1240.07 1962.57 1209.52 1980.95 1189.51Z" fill="#FFFFFF" fill-rule="evenodd"/><path d="M2100.1 1178.54C2099.73 1174.78 2103.8 1172.55 2107.06 1173.15 2113.37 1172.97 2119.9 1172.51 2125.84 1175.06 2125.95 1216.94 2126.19 1258.81 2125.73 1300.66 2117.69 1302.75 2107.08 1305.23 2100.2 1299.29 2099.84 1259.05 2100.07 1218.78 2100.1 1178.54Z" fill="#FFFFFF" fill-rule="evenodd"/><path d="M2155.09 1184.83C2154.51 1180.36 2156.85 1176.1 2160.49 1173.61 2172.06 1172.51 2183.76 1173.24 2195.39 1173.21 2210.36 1173.68 2227.35 1177.11 2236.47 1190.2 2249.83 1210.61 2242.09 1243.04 2218.71 1252.59 2206.96 1257.96 2193.76 1257.27 2181.16 1257.34 2181.33 1271.62 2181.03 1285.87 2181.31 1300.15 2173.33 1303.17 2162.29 1304.97 2155.26 1299.36 2154.87 1261.19 2155.24 1223 2155.09 1184.83M2181.22 1193.92C2181.2 1208.41 2181.2 1222.91 2181.22 1237.41 2189.64 1236.95 2199.25 1239.02 2206.48 1233.49 2218.38 1225.2 2219.59 1203.18 2205.77 1196.09 2197.97 1193.17 2189.38 1194.42 2181.22 1193.92Z" fill="#FFFFFF" fill-rule="evenodd"/><path d="M2262.13 1182.74C2261.21 1177.36 2266.29 1172.29 2271.63 1173.08 2291.78 1173.1 2311.92 1172.82 2332.04 1173.28 2333.34 1180.33 2333.27 1187.56 2332.13 1194.64 2317.53 1195.12 2302.9 1194.66 2288.28 1194.94 2288.45 1206.6 2288.26 1218.24 2288.43 1229.9 2302.22 1229.9 2316.03 1229.68 2329.82 1230.05 2332 1236.66 2331.67 1243.47 2329.64 1250.06 2315.88 1250.42 2302.11 1250.22 2288.34 1250.22 2288.3 1267.06 2288.5 1283.89 2288.21 1300.73 2279.77 1303.47 2270.2 1304.21 2262 1300.23 2262.29 1261.06 2262.02 1221.9 2262.13 1182.74Z" fill="#FFFFFF" fill-rule="evenodd"/></g></svg>