<svg width="1758" height="1760" xmlns="http://www.w3.org/2000/svg" xmlns:xlink="http://www.w3.org/1999/xlink" xml:space="preserve" overflow="hidden"><defs><filter id="fx0" x="-10%" y="-10%" width="120%" height="120%" filterUnits="userSpaceOnUse" primitiveUnits="userSpaceOnUse"><feComponentTransfer color-interpolation-filters="sRGB"><feFuncR type="discrete" tableValues="0 0"/><feFuncG type="discrete" tableValues="0 0"/><feFuncB type="discrete" tableValues="0 0"/><feFuncA type="linear" slope="0.4" intercept="0"/></feComponentTransfer><feGaussianBlur stdDeviation="6.11111 6.11111"/></filter></defs><g transform="translate(-3133 -829)"><rect x="3133" y="829" width="1758" height="1760" fill="#FFFFFF" fill-opacity="0"/><path d="M3399 1098.32C3399 985.741 3470.02 930 3582.69 930L4474.86 930C4587.53 930 4623 1026.34 4623 1138.92L4623 2284.15C4623 2396.73 4597.69 2488 4485.02 2488L3531.9 2488C3419.23 2488 3399 2396.73 3399 2284.15L3399 1098.32Z" stroke="#999999" stroke-width="13.75" stroke-miterlimit="8" stroke-opacity="0.6" fill="#FFFFFF" fill-rule="evenodd"/><path d="M3410 1114.41C3410 1003.78 3480.09 949 3591.29 949L4471.8 949C4582.99 949 4618 1043.67 4618 1154.3L4618 2279.69C4618 2390.32 4593.02 2480 4481.82 2480L3541.16 2480C3429.97 2480 3410 2390.32 3410 2279.69L3410 1114.41Z" fill="#F5F5F5" fill-rule="evenodd"/><path d="M3412 2283 4620 2283C4620 2393.46 4595.02 2483 4483.82 2483L3543.16 2483C3431.97 2483 3412 2393.46 3412 2283Z" fill="#F9F9F9" fill-rule="evenodd"/><rect x="3409" y="1714" width="1208" height="569" fill="#F9F9F9"/><g filter="url(#fx0)" transform="translate(4404 918)"><g><path d="M43.0652 209.671C18.3007 216.534 17.8945 114.769 0 20.7423 113.894 17.823 176.891-16.4883 179 9.9385 179 120.248 154.064 209.671 43.0652 209.671Z" fill="#FFFFFF" fill-rule="evenodd" transform="matrix(1 0 0 -1 20.25 230)"/></g></g><path d="M43.0652 209.671C18.3007 216.534 17.8945 114.769 0 20.7423 113.894 17.823 176.891-16.4883 179 9.9385 179 120.248 154.064 209.671 43.0652 209.671Z" fill="#FFFFFF" fill-rule="evenodd" transform="matrix(1 0 0 -1 4438 1148)"/><path d="M3788 1369.25 4009.5 1497 4231 1369.25 4231 1113.75 4009.5 986 3788 1113.75Z" fill="#E93511" fill-rule="evenodd"/><path d="M3986.35 1017 3825.65 1109.74C3825.92 1112.63 3825.92 1115.54 3825.65 1118.43L3986.08 1211.17C3999.62 1201.16 4018.11 1201.16 4031.65 1211.17L4192.08 1118.43C4191.82 1115.54 4191.82 1112.63 4192.08 1109.74L4031.92 1017C4018.38 1027.01 3999.89 1027.01 3986.35 1017ZM4207.62 1143.99 4046.93 1237.78C4048.72 1254.47 4039.58 1270.42 4024.28 1277.3L4024.54 1461.73C4027.14 1462.88 4029.61 1464.29 4031.92 1465.95L4192.35 1373.21C4190.56 1356.52 4199.7 1340.58 4215 1333.69L4215 1148.21C4212.43 1147 4209.97 1145.59 4207.62 1143.99ZM3810.38 1145.04C3808.07 1146.7 3805.6 1148.11 3803 1149.26L3803 1334.74C3818.51 1341.4 3827.75 1357.51 3825.65 1374.26L3986.08 1467C3988.39 1465.34 3990.86 1463.93 3993.46 1462.78L3993.46 1277.3C3977.95 1270.65 3968.71 1254.54 3970.8 1237.78Z" fill="#F05133" fill-rule="evenodd"/><path d="M4009.5 1013.18 4207.53 1127.72 4207.53 1356.54 4009.5 1471.08 3811.47 1356.54 3811.47 1127.46ZM4009.5 986 3788 1114 3788 1370 4009.5 1498 4231 1370 4231 1114Z" fill="#E93511" fill-rule="evenodd"/><path d="M4010.95 1285.02 4007.79 1285.02C3996.81 1285.05 3986.27 1280.69 3978.5 1272.91 3970.73 1265.14 3966.38 1254.58 3966.41 1243.58L3966.41 1240.42C3966.38 1229.42 3970.73 1218.86 3978.5 1211.09 3986.27 1203.31 3996.81 1198.95 4007.79 1198.98L4010.95 1198.98C4021.93 1198.95 4032.47 1203.31 4040.24 1211.09 4048 1218.86 4052.35 1229.42 4052.32 1240.42L4052.32 1243.58C4052.35 1254.58 4048 1265.14 4040.24 1272.91 4032.47 1280.69 4021.93 1285.05 4010.95 1285.02ZM4010.95 1455.25 4007.79 1455.25C3992.82 1455.2 3979 1463.28 3971.68 1476.36L4009.37 1498 4047.05 1476.36C4039.74 1463.28 4025.92 1455.2 4010.95 1455.25ZM4231 1327.25 4229.42 1327.25C4218.44 1327.22 4207.9 1331.57 4200.13 1339.35 4192.37 1347.13 4188.02 1357.68 4188.04 1368.68L4188.04 1371.85C4188.01 1378.88 4189.83 1385.8 4193.31 1391.91L4231 1370ZM4193.31 1092.36C4189.85 1098.48 4188.04 1105.39 4188.04 1112.42L4188.04 1115.58C4188.02 1126.58 4192.37 1137.14 4200.13 1144.91 4207.9 1152.69 4218.44 1157.05 4229.42 1157.02L4231 1157.02 4231 1114ZM4009.37 986 3971.68 1007.64C3978.96 1020.79 3992.78 1028.97 4007.79 1029.02L4010.95 1029.02C4025.92 1029.06 4039.74 1020.98 4047.05 1007.91ZM3825.69 1092.09 3788 1114 3788 1157.02 3789.58 1157.02C3800.56 1157.05 3811.1 1152.69 3818.87 1144.91 3826.63 1137.14 3830.98 1126.58 3830.96 1115.58L3830.96 1112.42C3830.87 1105.32 3829.06 1098.34 3825.69 1092.09ZM3789.58 1327.25 3788 1327.25 3788 1370 3825.69 1391.91C3829.15 1385.79 3830.96 1378.88 3830.96 1371.85L3830.96 1368.68C3830.98 1357.68 3826.63 1347.13 3818.87 1339.35 3811.1 1331.57 3800.56 1327.22 3789.58 1327.25Z" fill="#E93511" fill-rule="evenodd"/><path d="M4009 1499 4009 1242.91 3788 1115 3788 1371.09Z" fill="#083B54" fill-rule="evenodd" fill-opacity="0.14902"/><path d="M4231 1368.82 4231 1113 4009 1240.91 4009 1497Z" fill="#083B54" fill-rule="evenodd" fill-opacity="0.0509804"/><path d="M4140.84 1194.38C4153.13 1190.12 4167.76 1191.5 4178.4 1199.23 4178.55 1204.3 4178.73 1209.38 4177.93 1214.39 4171.37 1213.36 4166.01 1208.51 4159.23 1208.36 4153.46 1207.61 4146.37 1207.87 4143.33 1213.75 4142.67 1217.53 4142 1222.32 4145.46 1224.98 4155.47 1234.63 4171.94 1235.5 4179.79 1247.87 4185.04 1254.45 4184.27 1263.31 4183.31 1271.14 4180.4 1282.68 4169.84 1291.08 4158.34 1293 4145.81 1295.33 4131.41 1293.9 4121.33 1285.41 4120.91 1280.17 4120.75 1274.86 4121.7 1269.68 4132.38 1273.74 4143.58 1280.78 4155.45 1276.68 4163.55 1274.85 4166.88 1262.49 4159.87 1257.53 4149.38 1249.37 4134.21 1247.38 4126.7 1235.42 4121.84 1229.09 4122.33 1220.75 4123.18 1213.26 4125.22 1204.41 4132.28 1197.17 4140.84 1194.38Z" fill="#FFFFFF" fill-rule="evenodd"/><path d="M3841.7 1206.09C3858.36 1189.95 3885.18 1188.53 3905.69 1197.5 3913.62 1200.71 3912.96 1211.28 3909.76 1217.69 3897.63 1210.88 3883.02 1205.6 3869.16 1210.15 3857.65 1213.53 3850.17 1224.83 3848.94 1236.36 3847.72 1247.44 3849.19 1259.76 3856.85 1268.43 3865.46 1278.02 3880.47 1279.68 3891.83 1274.28 3891.71 1266.6 3891.76 1258.91 3891.79 1251.24 3884.96 1251.22 3878.14 1251.29 3871.31 1251.12 3869.99 1246.1 3869.28 1240.73 3871.93 1235.98 3882.68 1236.23 3893.45 1235.89 3904.22 1236.11 3907.53 1236.14 3911.47 1237.63 3911.51 1241.52 3911.91 1253.87 3911.52 1266.25 3911.69 1278.61 3911.73 1282.22 3911.52 1287.37 3907.35 1288.58 3891.79 1294.48 3874.18 1295.99 3858.19 1290.98 3845.46 1286.96 3834.99 1276.59 3831.16 1263.8 3824.92 1244.58 3827.67 1221.32 3841.7 1206.09Z" fill="#FFFFFF" fill-rule="evenodd"/><path d="M3933.07 1198.22C3932.79 1195.35 3935.93 1193.66 3938.43 1194.11 3943.28 1193.98 3948.31 1193.63 3952.88 1195.57 3952.96 1227.46 3953.14 1259.34 3952.79 1291.21 3946.6 1292.81 3938.45 1294.7 3933.16 1290.18 3932.87 1259.53 3933.06 1228.87 3933.07 1198.22Z" fill="#FFFFFF" fill-rule="evenodd"/><path d="M3975.07 1203.01C3974.63 1199.61 3976.41 1196.36 3979.18 1194.47 3987.99 1193.63 3996.9 1194.18 4005.75 1194.16 4017.15 1194.52 4030.08 1197.13 4037.03 1207.1 4047.2 1222.64 4041.31 1247.34 4023.51 1254.61 4014.56 1258.7 4004.51 1258.18 3994.92 1258.23 3995.05 1269.1 3994.81 1279.96 3995.03 1290.83 3988.96 1293.13 3980.55 1294.5 3975.2 1290.23 3974.9 1261.16 3975.18 1232.08 3975.07 1203.01M3994.97 1209.93C3994.95 1220.97 3994.95 1232.01 3994.97 1243.05 4001.38 1242.7 4008.69 1244.27 4014.19 1240.07 4023.26 1233.75 4024.18 1216.98 4013.66 1211.59 4007.72 1209.36 4001.17 1210.31 3994.97 1209.93Z" fill="#FFFFFF" fill-rule="evenodd"/><path d="M4057.1 1201.41C4056.39 1197.32 4060.32 1193.46 4064.46 1194.06 4080.07 1194.08 4095.67 1193.86 4111.26 1194.21 4112.26 1199.58 4112.21 1205.09 4111.33 1210.48 4100.01 1210.85 4088.69 1210.49 4077.36 1210.71 4077.49 1219.59 4077.34 1228.45 4077.48 1237.33 4088.16 1237.33 4098.86 1237.16 4109.54 1237.45 4111.22 1242.48 4110.97 1247.67 4109.4 1252.69 4098.74 1252.96 4088.07 1252.8 4077.41 1252.8 4077.37 1265.63 4077.53 1278.45 4077.31 1291.27 4070.76 1293.35 4063.35 1293.92 4057 1290.89 4057.22 1261.06 4057.02 1231.24 4057.1 1201.41Z" fill="#FFFFFF" fill-rule="evenodd"/><g><g><g><path d="M128.025 13.8548C148.939 8.69236 170.472 6.90535 191.96 8.25113 197.431 10.7441 203.675 9.37628 209.301 11.3398 214.794 12.1781 220.243 13.2812 225.56 14.98 228.186 16.0169 230.855 17.0097 233.502 17.9804 244.445 20.8926 254.307 26.6286 263.97 32.3206 269.243 37.0859 274.339 42.4249 276.391 49.4185 279.832 61.2437 279.126 73.7748 278.817 85.9529 278.178 93.3216 277.406 102.61 270.103 106.581 264.477 107 259.933 102.61 255.388 99.9181 240.981 89.4387 224.744 81.5406 207.558 76.7752 181.966 71.5024 153.219 73.7086 131.797 89.924 106.007 108.919 94.0496 140.997 90.255 171.796L89.7696 172.303C89.0857 173.075 87.6958 174.597 87.0119 175.347 86.3721 182.407 86.4162 189.511 86.2618 196.593 60.1406 198.159 33.9532 195.975 7.83195 197.696 7.05979 219.383 10.0602 240.959 12.7076 262.448 7.89814 241.511 7.58927 219.912 7.34659 198.534 3.8167 192.445 5.16247 185.055 5.55958 178.392 7.76577 166.104 8.03051 153.528 11.1412 141.394 19.2159 107.728 34.8136 75.275 59.4346 50.6099 73.7968 37.5492 90.5197 27.3787 108.478 20.0542 111.236 19.1056 113.994 18.179 116.729 17.2082 120.48 16.039 124.23 14.8697 128.025 13.8548Z" fill="#E93511" transform="matrix(1 0 0 1.00076 3618.28 1511)"/><path d="M332.626 19.1497C342.356 11.8693 354.865 14.9359 365.962 12.1781 369.823 11.1192 373.639 12.3105 377.302 13.5239 385.641 14.0534 394.708 12.5532 402.253 17.0538 407.438 19.4585 409.379 25.6359 409.026 30.9748 408.96 86.5265 409.026 142.056 408.982 197.608 383.942 197.299 358.88 197.542 333.84 197.498 333.046 196.792 331.479 195.38 330.707 194.652 330.222 165.839 330.354 136.96 330.663 108.103 330.222 80.8125 330.486 53.522 330.53 26.2095 331.236 23.8709 331.942 21.5103 332.626 19.1497Z" fill="#E93511" transform="matrix(1 0 0 1.00076 3618.28 1511)"/><path d="M500.407 14.98C504.334 14.6049 508.239 13.9872 512.055 12.9503 524.454 11.5163 536.831 14.7814 549.185 12.9282 555.826 12.134 562.444 14.1637 569.085 13.2592 579.962 11.781 590.816 13.8548 601.693 14.1196 612.856 15.2447 624.107 14.2519 635.315 14.98 645.375 17.495 656.031 16.9214 666.069 20.0542 669.202 20.5837 672.357 21.1132 675.533 21.5765 678.247 22.6134 681.027 23.5841 683.785 24.5548 686.763 25.3049 689.763 26.055 692.675 27.0478 696.978 29.0113 701.346 30.7763 705.736 32.5633 718.554 39.4466 731.306 46.6828 742.204 56.4342 768.987 80.8125 785.776 115.339 791.182 150.903 789.748 166.28 793.895 181.414 792.947 196.77 767.973 197.608 742.976 196.747 718.003 197.321L715.84 197.255C714.693 165.949 710.193 132.261 688.682 107.86 678.247 94.8218 662.936 87.6296 648 81.1434 644.713 79.0476 641.624 76.356 637.675 75.6942 622.364 72.6055 606.701 71.3921 591.103 71.723 581.484 72.054 571.71 70.6861 562.202 72.4731 560.238 75.8927 560.657 80.0845 560.349 83.857 560.569 121.428 561.143 159.022 560.172 196.593 536.456 197.784 512.717 196.549 488.979 197.299L486.287 197.343C485.713 145.586 486.287 93.829 486 42.0499 485.956 31.5484 488.67 18.0907 500.407 14.98Z" fill="#E93511" transform="matrix(1 0 0 1.00076 3618.28 1511)"/><path d="M562.202 72.4731C571.71 70.6861 581.484 72.054 591.103 71.723 606.701 71.3921 622.364 72.6055 637.675 75.6942 641.624 76.356 644.713 79.0476 648 81.1434 637.19 79.6432 626.578 76.7752 615.635 76.356 598.295 75.6721 580.932 75.8927 563.592 75.8927 563.592 159.132 563.636 242.393 563.548 325.633 594.765 324.993 627.328 329.008 657.001 316.918 676.857 309.307 693.161 293.797 702.581 274.824 714.671 250.975 717.738 223.707 718.003 197.321 742.976 196.747 767.973 197.608 792.947 196.77 793.895 181.414 789.748 166.28 791.182 150.903 797.116 179.672 796.079 209.477 792.527 238.488 787.1 279.7 769.782 321.662 736.027 347.562 705.317 372.492 665.164 380.92 626.689 384.229 585.984 385.619 545.192 385.111 504.466 384.714 494.803 381.449 488.14 372.117 488.912 361.814 488.89 306.968 488.78 252.145 488.979 197.299 512.717 196.549 536.456 197.784 560.172 196.593 561.143 159.022 560.569 121.428 560.349 83.857 560.657 80.0845 560.238 75.8927 562.202 72.4731Z" fill="#F05133" transform="matrix(1 0 0 1.00076 3618.28 1511)"/><path d="M87.0119 175.347C87.6958 174.597 89.0857 173.075 89.7696 172.303 87.1001 212.08 86.9457 255.344 109.074 290.201 124.627 315.153 154.323 328.39 183.201 327.618 211.507 328.832 238.334 316.896 261.411 301.541 265.625 298.055 271.096 298.32 276.192 298.916 281.487 312.638 279.523 327.618 279.546 341.981 279.523 351.533 274.736 360.821 266.617 365.962 242.415 381.361 213.801 388.068 185.54 390.781 163.125 391.796 140.556 389.458 118.693 384.383 100.756 378.89 83.1511 371.367 68.3476 359.63 37.6596 336.399 19.5909 299.71 12.7076 262.448 10.0602 240.959 7.05979 219.383 7.83195 197.696 33.9532 195.975 60.1406 198.159 86.2618 196.593 86.4162 189.511 86.3721 182.407 87.0119 175.347Z" fill="#F05133" transform="matrix(1 0 0 1.00076 3618.28 1511)"/><path d="M333.84 197.498C358.88 197.542 383.942 197.299 408.982 197.608 408.96 256.05 408.982 314.491 408.982 372.933 410.019 378.625 405.011 382.729 400.025 384.052 383.832 387.428 367.021 388.046 350.673 385.376 344.827 384.758 337.656 383.81 334.502 378.096 333.575 375.029 333.796 371.742 333.707 368.565 333.884 311.557 333.641 254.527 333.84 197.498Z" fill="#F05133" transform="matrix(1 0 0 1.00076 3618.28 1511)"/></g></g></g></g></svg>